<?xml version="1.0" standalone="no"?>
<!DOCTYPE svg PUBLIC "-//W3C//DTD SVG 20010904//EN"
 "http://www.w3.org/TR/2001/REC-SVG-20010904/DTD/svg10.dtd">
<svg version="1.0" xmlns="http://www.w3.org/2000/svg"
 width="900.000000pt" height="900.000000pt" viewBox="0 0 900.000000 900.000000"
 preserveAspectRatio="xMidYMid meet">

<g transform="translate(0.000000,900.000000) scale(0.100000,-0.100000)"
fill="#000000" stroke="none">
<path d="M3210 7715 c-523 -79 -999 -230 -1371 -436 -110 -60 -254 -155 -322
-212 -280 -233 -701 -1291 -936 -2352 -132 -597 -200 -1115 -217 -1653 l-7
-210 27 -56 c66 -135 230 -330 394 -467 409 -343 1073 -610 1725 -694 154 -20
195 -19 240 4 45 23 39 16 240 290 l158 216 -63 18 c-484 140 -843 302 -1190
539 -141 96 -189 166 -172 253 9 49 55 108 99 129 53 26 132 18 182 -17 304
-213 468 -303 761 -416 409 -158 784 -243 1277 -292 169 -17 759 -18 925 -1
451 45 789 117 1155 245 307 107 619 266 829 421 88 65 112 76 167 76 111 0
198 -112 169 -219 -15 -56 -57 -101 -169 -180 -327 -230 -687 -390 -1244 -554
-6 -2 259 -373 330 -461 31 -38 89 -66 140 -66 118 0 400 49 638 110 604 156
1117 432 1421 765 91 99 182 224 220 301 l27 56 -7 209 c-17 536 -86 1060
-216 1649 -225 1013 -629 2049 -910 2331 -125 126 -489 330 -782 438 -325 120
-723 214 -1064 252 -109 12 -112 12 -159 -12 -27 -13 -57 -35 -67 -49 -16 -22
-81 -181 -75 -186 1 -1 45 -9 97 -18 472 -84 1015 -277 1395 -496 110 -63 140
-91 161 -146 50 -130 -74 -269 -208 -233 -21 5 -72 30 -114 55 -408 241 -968
425 -1534 503 -267 37 -393 45 -660 45 -267 0 -393 -8 -660 -45 -566 -78
-1126 -262 -1534 -503 -42 -25 -94 -50 -116 -56 -122 -33 -248 98 -212 219 20
64 53 94 198 176 370 211 831 375 1319 471 77 15 141 28 143 29 6 5 -62 167
-80 191 -29 36 -94 64 -148 63 -25 0 -115 -11 -200 -24z m301 -2707 c99 -37
156 -74 234 -152 109 -110 171 -233 201 -396 33 -185 -2 -386 -97 -547 -47
-80 -171 -201 -244 -239 -106 -55 -160 -69 -275 -69 -115 0 -169 14 -275 69
-73 38 -197 159 -244 239 -256 435 -40 1019 414 1117 70 16 213 4 286 -22z
m2340 0 c100 -37 157 -74 234 -153 110 -111 171 -233 201 -395 33 -185 -2
-386 -97 -547 -47 -80 -171 -201 -244 -239 -106 -55 -160 -69 -275 -69 -115 0
-169 14 -275 69 -73 38 -197 159 -244 239 -256 435 -40 1019 414 1117 70 16
213 4 286 -22z"/>
</g>
</svg>
