<svg fill="#000000" width="800px" height="800px" viewBox="0 0 32 32" xmlns="http://www.w3.org/2000/svg">
<path d="M16 0c-4.347 0-4.889 0.020-6.596 0.096-1.704 0.078-2.867 0.349-3.884 0.745-1.052 0.408-1.945 0.956-2.835 1.845s-1.437 1.783-1.845 2.835c-0.396 1.017-0.667 2.180-0.745 3.884-0.076 1.707-0.096 2.249-0.096 6.596s0.020 4.889 0.096 6.596c0.078 1.703 0.349 2.867 0.745 3.884 0.408 1.052 0.956 1.945 1.845 2.835s1.783 1.437 2.835 1.845c1.017 0.396 2.180 0.667 3.884 0.745 1.707 0.076 2.249 0.096 6.596 0.096s4.889-0.020 6.596-0.096c1.703-0.078 2.867-0.349 3.884-0.745 1.052-0.408 1.945-0.956 2.835-1.845s1.437-1.783 1.845-2.835c0.396-1.017 0.667-2.180 0.745-3.884 0.076-1.707 0.096-2.249 0.096-6.596s-0.020-4.889-0.096-6.596c-0.078-1.703-0.349-2.867-0.745-3.884-0.408-1.052-0.956-1.945-1.845-2.835s-1.783-1.437-2.835-1.845c-1.017-0.396-2.180-0.667-3.884-0.745-1.707-0.076-2.249-0.096-6.596-0.096zM16 2.88c4.271 0 4.78 0.021 6.467 0.095 1.56 0.071 2.407 0.331 2.969 0.551 0.747 0.291 1.28 0.636 1.839 1.195s0.904 1.092 1.195 1.839c0.22 0.562 0.48 1.409 0.551 2.969 0.074 1.687 0.095 2.196 0.095 6.467s-0.021 4.78-0.099 6.467c-0.084 1.56-0.349 2.407-0.564 2.969-0.299 0.747-0.64 1.28-1.199 1.839s-1.099 0.904-1.84 1.195c-0.556 0.22-1.416 0.48-2.979 0.551-1.697 0.074-2.199 0.095-6.479 0.095s-4.781-0.021-6.48-0.099c-1.564-0.084-2.416-0.349-2.979-0.564-0.736-0.299-1.28-0.64-1.839-1.199s-0.904-1.099-1.196-1.84c-0.22-0.556-0.48-1.416-0.556-2.979-0.045-1.291-0.075-2.057-0.084-4.781v-3.393c0.009-2.725 0.039-3.49 0.084-4.781 0.076-1.564 0.336-2.416 0.556-2.979 0.292-0.736 0.637-1.28 1.196-1.839s1.103-0.9 1.839-1.196c0.563-0.22 1.416-0.48 2.979-0.556 1.697-0.061 2.197-0.083 6.479-0.083zM16 7.784c-4.54 0-8.216 3.676-8.216 8.216s3.676 8.216 8.216 8.216 8.216-3.676 8.216-8.216c0-4.54-3.676-8.216-8.216-8.216zM16 21.333c-2.945 0-5.333-2.388-5.333-5.333s2.388-5.333 5.333-5.333c2.945 0 5.333 2.388 5.333 5.333s-2.388 5.333-5.333 5.333zM26.461 7.46c0 1.060-0.86 1.92-1.92 1.92s-1.92-0.86-1.92-1.92c0-1.061 0.86-1.92 1.92-1.92s1.92 0.859 1.92 1.92z"/>
</svg>
