<svg fill="#000000" width="800px" height="800px" viewBox="0 0 24 24" xmlns="http://www.w3.org/2000/svg">
<path d="M21,7H3A1,1,0,0,0,2,8v8a1,1,0,0,0,1,1H21a1,1,0,0,0,1-1V8A1,1,0,0,0,21,7Zm-2.5,8a.5.5,0,0,1-.5-.5V13.414l-2.293,2.293a1,1,0,0,1-1.414,0L12,13.414,8.707,16.707a1,1,0,0,1-1.414,0L5,14.414V14.5a.5.5,0,0,1-1,0v-5a.5.5,0,0,1,1,0v.086l2.293,2.293a1,1,0,0,1,0,1.414L6,13.586,9.293,10.293a1,1,0,0,1,1.414,0L13,12.586l3.293-3.293a1,1,0,0,1,1.414,0L20,11.586V9.5a.5.5,0,0,1,1,0v5A.5.5,0,0,1,18.5,15Z"/>
<path d="M21,19H3a1,1,0,0,1-1-1V8A1,1,0,0,1,3,7H21a1,1,0,0,1,1,1v10A1,1,0,0,1,21,19ZM4,17H20V9H4Z"/>
</svg>
