<?xml version="1.0" standalone="no"?>
<!DOCTYPE svg PUBLIC "-//W3C//DTD SVG 20010904//EN"
 "http://www.w3.org/TR/2001/REC-SVG-20010904/DTD/svg10.dtd">
<svg version="1.0" xmlns="http://www.w3.org/2000/svg"
 width="360.000000pt" height="360.000000pt" viewBox="0 0 360.000000 360.000000"
 preserveAspectRatio="xMidYMid meet">

<g transform="translate(0.000000,360.000000) scale(0.100000,-0.100000)"
fill="#000000" stroke="none">
<path d="M881 3135 c-35 -8 -93 -28 -128 -45 -89 -41 -202 -154 -243 -242 -61
-131 -61 -122 -58 -1087 l3 -876 26 -66 c37 -96 70 -147 136 -213 73 -73 189
-132 288 -146 46 -7 372 -10 940 -8 869 3 870 3 928 25 99 38 154 73 220 142
66 68 100 125 133 221 18 52 19 99 19 955 0 739 -2 909 -14 950 -55 199 -234
362 -432 394 -41 7 -367 11 -909 10 -680 0 -857 -3 -909 -14z m1679 -892 l0
-448 -282 -282 -283 -283 -129 0 -130 0 -158 -157 -158 -157 0 157 0 157 -190
0 -190 0 0 572 0 573 157 157 158 158 602 0 603 0 0 -447z"/>
<path d="M1420 2085 l0 -475 145 0 145 0 0 -107 0 -108 108 108 107 107 125 0
125 0 128 128 127 127 0 348 0 347 -505 0 -505 0 0 -475z m480 65 l0 -190 -65
0 -65 0 0 190 0 190 65 0 65 0 0 -190z m350 0 l0 -190 -70 0 -70 0 0 190 0
190 70 0 70 0 0 -190z"/>
</g>
</svg>
