<svg fill="#000000" width="800px" height="800px" viewBox="0 0 32 32" xmlns="http://www.w3.org/2000/svg">
<path d="M16 0.5c-8.563 0-15.5 6.938-15.5 15.5 0 2.688 0.688 5.219 1.875 7.438l-1.875 6.563 6.813-1.813c2.156 1.094 4.594 1.719 7.188 1.719 8.563 0 15.5-6.938 15.5-15.5s-6.938-15.906-15.5-15.906zM16 28.875c-2.313 0-4.469-0.625-6.344-1.688l-0.469-0.281-4.5 1.188 1.219-4.344-0.313-0.5c-1.156-1.875-1.844-4.094-1.844-6.469 0-7.031 5.719-12.781 12.75-12.781s12.75 5.75 12.75 12.781-5.719 12.094-12.75 12.094zM22.5 18.938c-0.344-0.188-2.031-1-2.344-1.125-0.313-0.094-0.531-0.156-0.75 0.156s-0.875 1.125-1.063 1.344c-0.188 0.219-0.406 0.25-0.75 0.063-0.344-0.188-1.438-0.531-2.719-1.688-1.031-0.906-1.719-2.031-1.906-2.375s-0.031-0.563 0.156-0.75c0.156-0.156 0.344-0.406 0.531-0.625 0.156-0.188 0.219-0.344 0.313-0.563 0.094-0.219 0.063-0.406-0.031-0.563s-0.75-1.813-1.031-2.469c-0.281-0.656-0.563-0.563-0.75-0.563-0.188 0-0.406-0.031-0.625-0.031s-0.563 0.094-0.875 0.406c-0.281 0.313-1.094 1.063-1.094 2.594s1.125 3.031 1.281 3.219c0.156 0.219 2.188 3.375 5.313 4.719 0.75 0.313 1.313 0.5 1.781 0.656 0.75 0.25 1.438 0.188 1.969 0.125 0.594-0.094 1.813-0.75 2.063-1.469s0.25-1.344 0.188-1.469c-0.094-0.156-0.313-0.25-0.656-0.406z"/>
</svg>
